<svg xmlns="http://www.w3.org/2000/svg" viewBox="0 0 64 64" fill="none">
  <defs>
    <linearGradient id="bg" x1="10" y1="8" x2="54" y2="58" gradientUnits="userSpaceOnUse">
      <stop stop-color="#197AF3"/>
      <stop offset="1" stop-color="#13C2A8"/>
    </linearGradient>
    <linearGradient id="glow" x1="16" y1="12" x2="40" y2="36" gradientUnits="userSpaceOnUse">
      <stop stop-color="#FFFFFF" stop-opacity="0.38"/>
      <stop offset="1" stop-color="#FFFFFF" stop-opacity="0"/>
    </linearGradient>
  </defs>
  <rect x="3" y="3" width="58" height="58" rx="18" fill="url(#bg)"/>
  <circle cx="20" cy="18" r="14" fill="url(#glow)"/>
  <path d="M24 20.5c0-1.19.38-2.15 1.15-2.88l3.74-3.53h6.22l3.74 3.53c.77.73 1.15 1.69 1.15 2.88v8.08c0 1.56-1.27 2.83-2.83 2.83h-2.04l-2.56 4.42c-.48.84-1.37 1.35-2.34 1.35h-2.65c-.97 0-1.86-.51-2.34-1.35l-2.56-4.42H26.83A2.83 2.83 0 0 1 24 28.58V20.5Z" stroke="#FFFFFF" stroke-width="3.2" stroke-linecap="round" stroke-linejoin="round"/>
  <path d="M29.6 15.72 27.1 11.9M34.4 15.72 36.9 11.9" stroke="#FFFFFF" stroke-width="2.8" stroke-linecap="round"/>
  <path d="M30.7 25.5h2.6" stroke="#FFFFFF" stroke-width="3.2" stroke-linecap="round"/>
  <path d="M41.9 15.1l.9-2.4.9 2.4 2.4.9-2.4.9-.9 2.4-.9-2.4-2.4-.9 2.4-.9Z" fill="#FFFFFF" fill-opacity="0.95"/>
</svg>